<mxfile host="app.diagrams.net" modified="2024-06-06T20:01:25.200Z" agent="Mozilla/5.0 (Windows NT 10.0; Win64; x64) AppleWebKit/537.36 (KHTML, like Gecko) Chrome/125.0.0.0 Safari/537.36" etag="wD2sIL8E0b-xvpPkg4sI" version="24.4.15" type="device">
  <diagram id="C5RBs43oDa-KdzZeNtuy" name="Page-1">
    <mxGraphModel dx="1827" dy="5244" grid="1" gridSize="10" guides="1" tooltips="1" connect="1" arrows="1" fold="1" page="1" pageScale="1" pageWidth="827" pageHeight="1169" math="0" shadow="0">
      <root>
        <mxCell id="WIyWlLk6GJQsqaUBKTNV-0" />
        <mxCell id="WIyWlLk6GJQsqaUBKTNV-1" parent="WIyWlLk6GJQsqaUBKTNV-0" />
        <mxCell id="nW7y54d8p8P1JJJMh4Ax-1" value="" style="edgeStyle=orthogonalEdgeStyle;rounded=0;orthogonalLoop=1;jettySize=auto;html=1;fontFamily=Helvetica;" parent="WIyWlLk6GJQsqaUBKTNV-1" source="WIyWlLk6GJQsqaUBKTNV-7" target="nW7y54d8p8P1JJJMh4Ax-0" edge="1">
          <mxGeometry relative="1" as="geometry" />
        </mxCell>
        <mxCell id="WIyWlLk6GJQsqaUBKTNV-7" value="Inicio" style="rounded=1;whiteSpace=wrap;html=1;fontSize=12;glass=0;strokeWidth=1;shadow=0;fillColor=#d5e8d4;strokeColor=#82b366;fontFamily=Helvetica;" parent="WIyWlLk6GJQsqaUBKTNV-1" vertex="1">
          <mxGeometry x="320" y="190" width="120" height="40" as="geometry" />
        </mxCell>
        <mxCell id="nW7y54d8p8P1JJJMh4Ax-3" value="" style="edgeStyle=orthogonalEdgeStyle;rounded=0;orthogonalLoop=1;jettySize=auto;html=1;dashed=1;fontFamily=Helvetica;" parent="WIyWlLk6GJQsqaUBKTNV-1" source="nW7y54d8p8P1JJJMh4Ax-0" target="nW7y54d8p8P1JJJMh4Ax-2" edge="1">
          <mxGeometry relative="1" as="geometry" />
        </mxCell>
        <mxCell id="nW7y54d8p8P1JJJMh4Ax-5" value="" style="edgeStyle=orthogonalEdgeStyle;rounded=0;orthogonalLoop=1;jettySize=auto;html=1;fontFamily=Helvetica;" parent="WIyWlLk6GJQsqaUBKTNV-1" source="nW7y54d8p8P1JJJMh4Ax-0" target="nW7y54d8p8P1JJJMh4Ax-4" edge="1">
          <mxGeometry relative="1" as="geometry" />
        </mxCell>
        <mxCell id="nW7y54d8p8P1JJJMh4Ax-0" value="Definición de la Función ABC" style="whiteSpace=wrap;html=1;rounded=1;glass=0;strokeWidth=1;shadow=0;fontFamily=Helvetica;" parent="WIyWlLk6GJQsqaUBKTNV-1" vertex="1">
          <mxGeometry x="320" y="300" width="120" height="60" as="geometry" />
        </mxCell>
        <mxCell id="nW7y54d8p8P1JJJMh4Ax-2" value="INPPUT&lt;br&gt;Adaptative Baseline corrector&lt;br&gt;-&lt;br&gt;&lt;li style=&quot;text-align: left;&quot;&gt;&lt;code&gt;QCval&lt;/code&gt;: Valoración booleana del cumplimiento de los límites.&lt;/li&gt;&lt;li style=&quot;text-align: left;&quot;&gt;&lt;code&gt;aceleracion_corregida&lt;/code&gt;: Datos del sismo menos la derivada del ajuste.&lt;/li&gt;&lt;li style=&quot;text-align: left;&quot;&gt;&lt;code&gt;velocidad_sin_filtrar&lt;/code&gt;: Integración trapezoidal de la aceleración.&lt;/li&gt;&lt;li style=&quot;text-align: left;&quot;&gt;&lt;code&gt;vector_tiempo&lt;/code&gt;: Vector de tiempo de la señal.&lt;/li&gt;&lt;li style=&quot;text-align: left;&quot;&gt;&lt;code&gt;data_rm_media_pre&lt;/code&gt;: Datos del sismo removida la media del pre-evento.&lt;/li&gt;&lt;li style=&quot;text-align: left;&quot;&gt;&lt;code&gt;index_tiempo&lt;/code&gt;: Índice de posición del tiempo de inicio.&lt;/li&gt;&lt;li style=&quot;text-align: left;&quot;&gt;&lt;code&gt;info&lt;/code&gt;: Información de cada componente.&lt;/li&gt;&lt;li style=&quot;text-align: left;&quot;&gt;&lt;code&gt;fc1&lt;/code&gt;: Frecuencia de corte baja (Hz).&lt;/li&gt;&lt;li style=&quot;text-align: left;&quot;&gt;&lt;code&gt;limite_lead&lt;/code&gt;: Umbral de error inicio del evento.&lt;/li&gt;&lt;li style=&quot;text-align: left;&quot;&gt;&lt;code&gt;limite_trail&lt;/code&gt;: Umbral de error final del evento.&lt;/li&gt;" style="whiteSpace=wrap;html=1;rounded=1;glass=0;strokeWidth=1;shadow=0;fillColor=#d5e8d4;strokeColor=#82b366;fontFamily=Helvetica;" parent="WIyWlLk6GJQsqaUBKTNV-1" vertex="1">
          <mxGeometry x="-210" y="222.5" width="440" height="215" as="geometry" />
        </mxCell>
        <mxCell id="nW7y54d8p8P1JJJMh4Ax-7" value="" style="edgeStyle=orthogonalEdgeStyle;rounded=0;orthogonalLoop=1;jettySize=auto;html=1;fontFamily=Helvetica;" parent="WIyWlLk6GJQsqaUBKTNV-1" source="nW7y54d8p8P1JJJMh4Ax-4" target="nW7y54d8p8P1JJJMh4Ax-6" edge="1">
          <mxGeometry relative="1" as="geometry" />
        </mxCell>
        <mxCell id="nW7y54d8p8P1JJJMh4Ax-4" value="&lt;h3&gt;&lt;span style=&quot;font-weight: normal;&quot;&gt;Inicio del Procesamiento&lt;/span&gt;&lt;/h3&gt;&lt;div&gt;&lt;div class=&quot;dark bg-gray-950 rounded-md border-[0.5px] border-token-border-medium&quot;&gt;&lt;div class=&quot;flex items-center relative text-token-text-secondary bg-token-main-surface-secondary px-4 py-2 text-xs font-sans justify-between rounded-t-md&quot;&gt;&lt;/div&gt;&lt;/div&gt;&lt;/div&gt;" style="whiteSpace=wrap;html=1;rounded=1;glass=0;strokeWidth=1;shadow=0;fontFamily=Helvetica;" parent="WIyWlLk6GJQsqaUBKTNV-1" vertex="1">
          <mxGeometry x="320" y="430" width="120" height="60" as="geometry" />
        </mxCell>
        <mxCell id="nW7y54d8p8P1JJJMh4Ax-11" value="" style="edgeStyle=orthogonalEdgeStyle;rounded=0;orthogonalLoop=1;jettySize=auto;html=1;fontFamily=Helvetica;" parent="WIyWlLk6GJQsqaUBKTNV-1" source="nW7y54d8p8P1JJJMh4Ax-6" target="nW7y54d8p8P1JJJMh4Ax-10" edge="1">
          <mxGeometry relative="1" as="geometry" />
        </mxCell>
        <mxCell id="nW7y54d8p8P1JJJMh4Ax-6" value="Para cada componente de QCval" style="whiteSpace=wrap;html=1;rounded=1;glass=0;strokeWidth=1;shadow=0;fontFamily=Helvetica;" parent="WIyWlLk6GJQsqaUBKTNV-1" vertex="1">
          <mxGeometry x="320" y="570" width="120" height="60" as="geometry" />
        </mxCell>
        <mxCell id="nW7y54d8p8P1JJJMh4Ax-13" value="" style="edgeStyle=orthogonalEdgeStyle;rounded=0;orthogonalLoop=1;jettySize=auto;html=1;fontFamily=Helvetica;" parent="WIyWlLk6GJQsqaUBKTNV-1" source="nW7y54d8p8P1JJJMh4Ax-10" target="nW7y54d8p8P1JJJMh4Ax-12" edge="1">
          <mxGeometry relative="1" as="geometry" />
        </mxCell>
        <mxCell id="nW7y54d8p8P1JJJMh4Ax-15" value="" style="edgeStyle=orthogonalEdgeStyle;rounded=0;orthogonalLoop=1;jettySize=auto;html=1;dashed=1;fontFamily=Helvetica;" parent="WIyWlLk6GJQsqaUBKTNV-1" source="nW7y54d8p8P1JJJMh4Ax-10" target="nW7y54d8p8P1JJJMh4Ax-14" edge="1">
          <mxGeometry relative="1" as="geometry" />
        </mxCell>
        <mxCell id="jgrW-l6k0apfGBNPhtUm-31" value="" style="edgeStyle=orthogonalEdgeStyle;rounded=0;orthogonalLoop=1;jettySize=auto;html=1;" edge="1" parent="WIyWlLk6GJQsqaUBKTNV-1" target="jgrW-l6k0apfGBNPhtUm-30">
          <mxGeometry relative="1" as="geometry">
            <mxPoint x="340" y="-3720" as="sourcePoint" />
          </mxGeometry>
        </mxCell>
        <mxCell id="nW7y54d8p8P1JJJMh4Ax-10" value="Si QCval en la posicion h es falso" style="rhombus;whiteSpace=wrap;html=1;rounded=1;glass=0;strokeWidth=1;shadow=0;fontFamily=Helvetica;" parent="WIyWlLk6GJQsqaUBKTNV-1" vertex="1">
          <mxGeometry x="315" y="690" width="130" height="80" as="geometry" />
        </mxCell>
        <mxCell id="nW7y54d8p8P1JJJMh4Ax-17" value="" style="edgeStyle=orthogonalEdgeStyle;rounded=0;orthogonalLoop=1;jettySize=auto;html=1;fontFamily=Helvetica;" parent="WIyWlLk6GJQsqaUBKTNV-1" source="nW7y54d8p8P1JJJMh4Ax-12" target="nW7y54d8p8P1JJJMh4Ax-16" edge="1">
          <mxGeometry relative="1" as="geometry" />
        </mxCell>
        <mxCell id="nW7y54d8p8P1JJJMh4Ax-25" value="" style="edgeStyle=orthogonalEdgeStyle;rounded=0;orthogonalLoop=1;jettySize=auto;html=1;dashed=1;dashPattern=8 8;fontFamily=Helvetica;" parent="WIyWlLk6GJQsqaUBKTNV-1" source="nW7y54d8p8P1JJJMh4Ax-12" target="nW7y54d8p8P1JJJMh4Ax-24" edge="1">
          <mxGeometry relative="1" as="geometry" />
        </mxCell>
        <mxCell id="nW7y54d8p8P1JJJMh4Ax-12" value="&lt;span style=&quot;background-color: initial;&quot;&gt;Declarar la variable np (numero de polinomios) con un valor de 2&lt;/span&gt;&lt;br&gt;&lt;div&gt;&lt;div class=&quot;dark bg-gray-950 rounded-md border-[0.5px] border-token-border-medium&quot;&gt;&lt;div class=&quot;flex items-center relative text-token-text-secondary bg-token-main-surface-secondary px-4 py-2 text-xs font-sans justify-between rounded-t-md&quot;&gt;&lt;span&gt;&lt;/span&gt;&lt;/div&gt;&lt;/div&gt;&lt;/div&gt;" style="whiteSpace=wrap;html=1;rounded=1;glass=0;strokeWidth=1;shadow=0;fontFamily=Helvetica;" parent="WIyWlLk6GJQsqaUBKTNV-1" vertex="1">
          <mxGeometry x="310" y="810" width="140" height="70" as="geometry" />
        </mxCell>
        <mxCell id="nW7y54d8p8P1JJJMh4Ax-14" value="&lt;span style=&quot;background-color: initial;&quot;&gt;Comprueba si &lt;/span&gt;&lt;code style=&quot;background-color: initial;&quot;&gt;QCval&lt;/code&gt;&lt;span style=&quot;background-color: initial;&quot;&gt; para la componente &lt;/span&gt;&lt;code style=&quot;background-color: initial;&quot;&gt;h&lt;/code&gt;&lt;span style=&quot;background-color: initial;&quot;&gt; es falso, indicando que necesita corrección.&lt;/span&gt;" style="whiteSpace=wrap;html=1;rounded=1;glass=0;strokeWidth=1;shadow=0;fillColor=#f8cecc;strokeColor=#b85450;fontFamily=Helvetica;" parent="WIyWlLk6GJQsqaUBKTNV-1" vertex="1">
          <mxGeometry x="80" y="690" width="160" height="80" as="geometry" />
        </mxCell>
        <mxCell id="nW7y54d8p8P1JJJMh4Ax-19" value="" style="edgeStyle=orthogonalEdgeStyle;rounded=0;orthogonalLoop=1;jettySize=auto;html=1;fontFamily=Helvetica;" parent="WIyWlLk6GJQsqaUBKTNV-1" source="nW7y54d8p8P1JJJMh4Ax-16" target="nW7y54d8p8P1JJJMh4Ax-18" edge="1">
          <mxGeometry relative="1" as="geometry" />
        </mxCell>
        <mxCell id="nW7y54d8p8P1JJJMh4Ax-16" value="Para el orden de 1 hasta np" style="whiteSpace=wrap;html=1;rounded=1;glass=0;strokeWidth=1;shadow=0;fontFamily=Helvetica;" parent="WIyWlLk6GJQsqaUBKTNV-1" vertex="1">
          <mxGeometry x="320" y="930" width="120" height="60" as="geometry" />
        </mxCell>
        <mxCell id="nW7y54d8p8P1JJJMh4Ax-21" value="" style="edgeStyle=orthogonalEdgeStyle;rounded=0;orthogonalLoop=1;jettySize=auto;html=1;dashed=1;fontFamily=Helvetica;" parent="WIyWlLk6GJQsqaUBKTNV-1" source="nW7y54d8p8P1JJJMh4Ax-18" target="nW7y54d8p8P1JJJMh4Ax-20" edge="1">
          <mxGeometry relative="1" as="geometry" />
        </mxCell>
        <mxCell id="nW7y54d8p8P1JJJMh4Ax-27" value="" style="edgeStyle=orthogonalEdgeStyle;rounded=0;orthogonalLoop=1;jettySize=auto;html=1;fontFamily=Helvetica;" parent="WIyWlLk6GJQsqaUBKTNV-1" source="nW7y54d8p8P1JJJMh4Ax-18" target="nW7y54d8p8P1JJJMh4Ax-26" edge="1">
          <mxGeometry relative="1" as="geometry" />
        </mxCell>
        <mxCell id="nW7y54d8p8P1JJJMh4Ax-18" value="Declaración de coeficientes" style="whiteSpace=wrap;html=1;rounded=1;glass=0;strokeWidth=1;shadow=0;fontFamily=Helvetica;" parent="WIyWlLk6GJQsqaUBKTNV-1" vertex="1">
          <mxGeometry x="320" y="1070" width="120" height="60" as="geometry" />
        </mxCell>
        <mxCell id="nW7y54d8p8P1JJJMh4Ax-23" value="" style="edgeStyle=orthogonalEdgeStyle;rounded=0;orthogonalLoop=1;jettySize=auto;html=1;fontFamily=Helvetica;" parent="WIyWlLk6GJQsqaUBKTNV-1" source="nW7y54d8p8P1JJJMh4Ax-20" target="nW7y54d8p8P1JJJMh4Ax-22" edge="1">
          <mxGeometry relative="1" as="geometry" />
        </mxCell>
        <mxCell id="nW7y54d8p8P1JJJMh4Ax-20" value="Utiliza el método polyfit" style="whiteSpace=wrap;html=1;rounded=1;glass=0;strokeWidth=1;shadow=0;fillColor=#f8cecc;strokeColor=#b85450;fontFamily=Helvetica;" parent="WIyWlLk6GJQsqaUBKTNV-1" vertex="1">
          <mxGeometry x="130" y="1070" width="120" height="60" as="geometry" />
        </mxCell>
        <mxCell id="nW7y54d8p8P1JJJMh4Ax-22" value="Calcula los coeficientes del polinomio de ajuste para los datos de velocidad no filtrados hasta&amp;nbsp;&lt;code style=&quot;border-color: var(--border-color);&quot;&gt;index_tiempo(h)&lt;/code&gt;." style="whiteSpace=wrap;html=1;fillColor=#f8cecc;strokeColor=#b85450;rounded=1;glass=0;strokeWidth=1;shadow=0;fontFamily=Helvetica;" parent="WIyWlLk6GJQsqaUBKTNV-1" vertex="1">
          <mxGeometry x="-120" y="1055" width="170" height="90" as="geometry" />
        </mxCell>
        <mxCell id="nW7y54d8p8P1JJJMh4Ax-24" value="&lt;strong style=&quot;background-color: initial;&quot;&gt;Número de Polinomios&lt;/strong&gt;&lt;span style=&quot;background-color: initial;&quot;&gt;: Define &lt;/span&gt;&lt;code style=&quot;background-color: initial;&quot;&gt;np&lt;/code&gt;&lt;span style=&quot;background-color: initial;&quot;&gt; como 2, indicando que se probarán ajustes polinomiales de orden 1 y 2.&lt;/span&gt;&lt;br&gt;&lt;div&gt;&lt;div class=&quot;dark bg-gray-950 rounded-md border-[0.5px] border-token-border-medium&quot;&gt;&lt;div class=&quot;flex items-center relative text-token-text-secondary bg-token-main-surface-secondary px-4 py-2 text-xs font-sans justify-between rounded-t-md&quot;&gt;&lt;span&gt;&lt;/span&gt;&lt;/div&gt;&lt;/div&gt;&lt;/div&gt;" style="whiteSpace=wrap;html=1;rounded=1;glass=0;strokeWidth=1;shadow=0;fillColor=#f8cecc;strokeColor=#b85450;fontFamily=Helvetica;" parent="WIyWlLk6GJQsqaUBKTNV-1" vertex="1">
          <mxGeometry x="60" y="802.5" width="170" height="85" as="geometry" />
        </mxCell>
        <mxCell id="nW7y54d8p8P1JJJMh4Ax-29" value="" style="edgeStyle=orthogonalEdgeStyle;rounded=0;orthogonalLoop=1;jettySize=auto;html=1;dashed=1;fontFamily=Helvetica;" parent="WIyWlLk6GJQsqaUBKTNV-1" source="nW7y54d8p8P1JJJMh4Ax-26" target="nW7y54d8p8P1JJJMh4Ax-28" edge="1">
          <mxGeometry relative="1" as="geometry" />
        </mxCell>
        <mxCell id="nW7y54d8p8P1JJJMh4Ax-39" value="" style="edgeStyle=orthogonalEdgeStyle;rounded=0;orthogonalLoop=1;jettySize=auto;html=1;fontFamily=Helvetica;" parent="WIyWlLk6GJQsqaUBKTNV-1" source="nW7y54d8p8P1JJJMh4Ax-26" target="nW7y54d8p8P1JJJMh4Ax-38" edge="1">
          <mxGeometry relative="1" as="geometry" />
        </mxCell>
        <mxCell id="nW7y54d8p8P1JJJMh4Ax-26" value="Declaración de ABC_ajuste&amp;nbsp;" style="whiteSpace=wrap;html=1;rounded=1;glass=0;strokeWidth=1;shadow=0;fontFamily=Helvetica;" parent="WIyWlLk6GJQsqaUBKTNV-1" vertex="1">
          <mxGeometry x="320" y="1210" width="120" height="60" as="geometry" />
        </mxCell>
        <mxCell id="nW7y54d8p8P1JJJMh4Ax-31" value="" style="edgeStyle=orthogonalEdgeStyle;rounded=0;orthogonalLoop=1;jettySize=auto;html=1;fontFamily=Helvetica;" parent="WIyWlLk6GJQsqaUBKTNV-1" source="nW7y54d8p8P1JJJMh4Ax-28" target="nW7y54d8p8P1JJJMh4Ax-30" edge="1">
          <mxGeometry relative="1" as="geometry" />
        </mxCell>
        <mxCell id="nW7y54d8p8P1JJJMh4Ax-28" value="Usa el método polyval" style="whiteSpace=wrap;html=1;rounded=1;glass=0;strokeWidth=1;shadow=0;fillColor=#e1d5e7;strokeColor=#9673a6;fontFamily=Helvetica;" parent="WIyWlLk6GJQsqaUBKTNV-1" vertex="1">
          <mxGeometry x="120" y="1210" width="120" height="60" as="geometry" />
        </mxCell>
        <mxCell id="nW7y54d8p8P1JJJMh4Ax-30" value="Evalúa el polinomio ajustado en los tiempos correspondientes." style="whiteSpace=wrap;html=1;fillColor=#e1d5e7;strokeColor=#9673a6;rounded=1;glass=0;strokeWidth=1;shadow=0;fontFamily=Helvetica;" parent="WIyWlLk6GJQsqaUBKTNV-1" vertex="1">
          <mxGeometry x="-80" y="1205" width="120" height="70" as="geometry" />
        </mxCell>
        <mxCell id="nW7y54d8p8P1JJJMh4Ax-41" value="" style="edgeStyle=orthogonalEdgeStyle;rounded=0;orthogonalLoop=1;jettySize=auto;html=1;dashed=1;fontFamily=Helvetica;" parent="WIyWlLk6GJQsqaUBKTNV-1" source="nW7y54d8p8P1JJJMh4Ax-38" target="nW7y54d8p8P1JJJMh4Ax-40" edge="1">
          <mxGeometry relative="1" as="geometry" />
        </mxCell>
        <mxCell id="nW7y54d8p8P1JJJMh4Ax-45" value="" style="edgeStyle=orthogonalEdgeStyle;rounded=0;orthogonalLoop=1;jettySize=auto;html=1;fontFamily=Helvetica;" parent="WIyWlLk6GJQsqaUBKTNV-1" source="nW7y54d8p8P1JJJMh4Ax-38" target="nW7y54d8p8P1JJJMh4Ax-44" edge="1">
          <mxGeometry relative="1" as="geometry" />
        </mxCell>
        <mxCell id="nW7y54d8p8P1JJJMh4Ax-38" value="Declaración de xrms" style="whiteSpace=wrap;html=1;rounded=1;glass=0;strokeWidth=1;shadow=0;fontFamily=Helvetica;" parent="WIyWlLk6GJQsqaUBKTNV-1" vertex="1">
          <mxGeometry x="320" y="1350" width="120" height="60" as="geometry" />
        </mxCell>
        <mxCell id="nW7y54d8p8P1JJJMh4Ax-40" value="Calcula la diferencia entre los datos de velocidad y el ajuste polinomial." style="whiteSpace=wrap;html=1;rounded=1;glass=0;strokeWidth=1;shadow=0;fillColor=#fff2cc;strokeColor=#d6b656;fontFamily=Helvetica;" parent="WIyWlLk6GJQsqaUBKTNV-1" vertex="1">
          <mxGeometry x="60" y="1350" width="180" height="60" as="geometry" />
        </mxCell>
        <mxCell id="nW7y54d8p8P1JJJMh4Ax-47" value="" style="edgeStyle=orthogonalEdgeStyle;rounded=0;orthogonalLoop=1;jettySize=auto;html=1;dashed=1;fontFamily=Helvetica;" parent="WIyWlLk6GJQsqaUBKTNV-1" source="nW7y54d8p8P1JJJMh4Ax-44" target="nW7y54d8p8P1JJJMh4Ax-46" edge="1">
          <mxGeometry relative="1" as="geometry" />
        </mxCell>
        <mxCell id="nW7y54d8p8P1JJJMh4Ax-51" value="" style="edgeStyle=orthogonalEdgeStyle;rounded=0;orthogonalLoop=1;jettySize=auto;html=1;fontFamily=Helvetica;" parent="WIyWlLk6GJQsqaUBKTNV-1" source="nW7y54d8p8P1JJJMh4Ax-44" target="nW7y54d8p8P1JJJMh4Ax-50" edge="1">
          <mxGeometry relative="1" as="geometry" />
        </mxCell>
        <mxCell id="nW7y54d8p8P1JJJMh4Ax-44" value="Declaración de rmsdABC" style="whiteSpace=wrap;html=1;rounded=1;glass=0;strokeWidth=1;shadow=0;fontFamily=Helvetica;" parent="WIyWlLk6GJQsqaUBKTNV-1" vertex="1">
          <mxGeometry x="320" y="1490" width="120" height="60" as="geometry" />
        </mxCell>
        <mxCell id="nW7y54d8p8P1JJJMh4Ax-49" value="" style="edgeStyle=orthogonalEdgeStyle;rounded=0;orthogonalLoop=1;jettySize=auto;html=1;fontFamily=Helvetica;" parent="WIyWlLk6GJQsqaUBKTNV-1" source="nW7y54d8p8P1JJJMh4Ax-46" target="nW7y54d8p8P1JJJMh4Ax-48" edge="1">
          <mxGeometry relative="1" as="geometry" />
        </mxCell>
        <mxCell id="nW7y54d8p8P1JJJMh4Ax-46" value="Usa el método rms" style="whiteSpace=wrap;html=1;rounded=1;glass=0;strokeWidth=1;shadow=0;fillColor=#f8cecc;strokeColor=#b85450;fontFamily=Helvetica;" parent="WIyWlLk6GJQsqaUBKTNV-1" vertex="1">
          <mxGeometry x="120" y="1490" width="120" height="60" as="geometry" />
        </mxCell>
        <mxCell id="nW7y54d8p8P1JJJMh4Ax-48" value="Calcula el RMS (Root Mean Square) del residuo." style="whiteSpace=wrap;html=1;fillColor=#f8cecc;strokeColor=#b85450;rounded=1;glass=0;strokeWidth=1;shadow=0;fontFamily=Helvetica;" parent="WIyWlLk6GJQsqaUBKTNV-1" vertex="1">
          <mxGeometry x="-80" y="1490" width="120" height="60" as="geometry" />
        </mxCell>
        <mxCell id="nW7y54d8p8P1JJJMh4Ax-53" value="" style="edgeStyle=orthogonalEdgeStyle;rounded=0;orthogonalLoop=1;jettySize=auto;html=1;fontFamily=Helvetica;" parent="WIyWlLk6GJQsqaUBKTNV-1" source="nW7y54d8p8P1JJJMh4Ax-50" target="nW7y54d8p8P1JJJMh4Ax-52" edge="1">
          <mxGeometry relative="1" as="geometry" />
        </mxCell>
        <mxCell id="nW7y54d8p8P1JJJMh4Ax-58" value="" style="edgeStyle=orthogonalEdgeStyle;rounded=0;orthogonalLoop=1;jettySize=auto;html=1;entryX=0.5;entryY=0;entryDx=0;entryDy=0;fontFamily=Helvetica;" parent="WIyWlLk6GJQsqaUBKTNV-1" source="nW7y54d8p8P1JJJMh4Ax-50" target="nW7y54d8p8P1JJJMh4Ax-61" edge="1">
          <mxGeometry relative="1" as="geometry">
            <mxPoint x="380" y="1810" as="targetPoint" />
          </mxGeometry>
        </mxCell>
        <mxCell id="nW7y54d8p8P1JJJMh4Ax-50" value="Si orden es igual a 1 o rmdsABC es menor al ultimo rms" style="rhombus;whiteSpace=wrap;html=1;rounded=1;glass=0;strokeWidth=1;shadow=0;fontFamily=Helvetica;" parent="WIyWlLk6GJQsqaUBKTNV-1" vertex="1">
          <mxGeometry x="310" y="1610" width="140" height="100" as="geometry" />
        </mxCell>
        <mxCell id="nW7y54d8p8P1JJJMh4Ax-56" value="" style="edgeStyle=orthogonalEdgeStyle;rounded=0;orthogonalLoop=1;jettySize=auto;html=1;dashed=1;fontFamily=Helvetica;" parent="WIyWlLk6GJQsqaUBKTNV-1" source="nW7y54d8p8P1JJJMh4Ax-52" target="nW7y54d8p8P1JJJMh4Ax-55" edge="1">
          <mxGeometry relative="1" as="geometry" />
        </mxCell>
        <mxCell id="nW7y54d8p8P1JJJMh4Ax-60" style="edgeStyle=orthogonalEdgeStyle;rounded=0;orthogonalLoop=1;jettySize=auto;html=1;entryX=0.046;entryY=0.48;entryDx=0;entryDy=0;entryPerimeter=0;fontFamily=Helvetica;" parent="WIyWlLk6GJQsqaUBKTNV-1" source="nW7y54d8p8P1JJJMh4Ax-52" target="nW7y54d8p8P1JJJMh4Ax-61" edge="1">
          <mxGeometry relative="1" as="geometry">
            <mxPoint x="320" y="1840" as="targetPoint" />
          </mxGeometry>
        </mxCell>
        <mxCell id="nW7y54d8p8P1JJJMh4Ax-52" value="ultimo_rms = rmsdABC;&lt;br&gt;                ABC_coef_mejor_ajuste = coeficientes;" style="whiteSpace=wrap;html=1;rounded=1;glass=0;strokeWidth=1;shadow=0;fontFamily=Helvetica;" parent="WIyWlLk6GJQsqaUBKTNV-1" vertex="1">
          <mxGeometry x="80" y="1724" width="160" height="60" as="geometry" />
        </mxCell>
        <mxCell id="nW7y54d8p8P1JJJMh4Ax-54" value="Si" style="text;html=1;strokeColor=none;fillColor=none;align=center;verticalAlign=middle;whiteSpace=wrap;rounded=0;fontFamily=Helvetica;" parent="WIyWlLk6GJQsqaUBKTNV-1" vertex="1">
          <mxGeometry x="160" y="1670" width="60" height="30" as="geometry" />
        </mxCell>
        <mxCell id="nW7y54d8p8P1JJJMh4Ax-55" value="Si el orden es 1 o el RMS actual es menor que el último RMS registrado, actualiza &lt;code&gt;ultimo_rms&lt;/code&gt; y guarda los coeficientes del mejor ajuste." style="whiteSpace=wrap;html=1;rounded=1;glass=0;strokeWidth=1;shadow=0;fillColor=#f8cecc;strokeColor=#b85450;fontFamily=Helvetica;" parent="WIyWlLk6GJQsqaUBKTNV-1" vertex="1">
          <mxGeometry x="-190" y="1719" width="200" height="70" as="geometry" />
        </mxCell>
        <mxCell id="nW7y54d8p8P1JJJMh4Ax-59" value="No" style="text;html=1;strokeColor=none;fillColor=none;align=center;verticalAlign=middle;whiteSpace=wrap;rounded=0;fontFamily=Helvetica;" parent="WIyWlLk6GJQsqaUBKTNV-1" vertex="1">
          <mxGeometry x="315" y="1739" width="60" height="30" as="geometry" />
        </mxCell>
        <mxCell id="nW7y54d8p8P1JJJMh4Ax-64" style="edgeStyle=orthogonalEdgeStyle;rounded=0;orthogonalLoop=1;jettySize=auto;html=1;entryX=1;entryY=0.5;entryDx=0;entryDy=0;fontFamily=Helvetica;" parent="WIyWlLk6GJQsqaUBKTNV-1" source="nW7y54d8p8P1JJJMh4Ax-61" target="nW7y54d8p8P1JJJMh4Ax-16" edge="1">
          <mxGeometry relative="1" as="geometry">
            <Array as="points">
              <mxPoint x="510" y="1819" />
              <mxPoint x="510" y="960" />
            </Array>
          </mxGeometry>
        </mxCell>
        <mxCell id="nW7y54d8p8P1JJJMh4Ax-67" value="" style="edgeStyle=orthogonalEdgeStyle;rounded=0;orthogonalLoop=1;jettySize=auto;html=1;fontFamily=Helvetica;" parent="WIyWlLk6GJQsqaUBKTNV-1" source="nW7y54d8p8P1JJJMh4Ax-61" target="nW7y54d8p8P1JJJMh4Ax-66" edge="1">
          <mxGeometry relative="1" as="geometry" />
        </mxCell>
        <mxCell id="nW7y54d8p8P1JJJMh4Ax-61" value="¿Quedan mas valores para orden?" style="rhombus;whiteSpace=wrap;html=1;rounded=1;glass=0;strokeWidth=1;shadow=0;fontFamily=Helvetica;" parent="WIyWlLk6GJQsqaUBKTNV-1" vertex="1">
          <mxGeometry x="310" y="1769" width="140" height="100" as="geometry" />
        </mxCell>
        <mxCell id="nW7y54d8p8P1JJJMh4Ax-63" value="Si" style="text;html=1;strokeColor=none;fillColor=none;align=center;verticalAlign=middle;whiteSpace=wrap;rounded=0;fontFamily=Helvetica;" parent="WIyWlLk6GJQsqaUBKTNV-1" vertex="1">
          <mxGeometry x="450" y="1784" width="60" height="30" as="geometry" />
        </mxCell>
        <mxCell id="nW7y54d8p8P1JJJMh4Ax-65" value="No" style="text;html=1;strokeColor=none;fillColor=none;align=center;verticalAlign=middle;whiteSpace=wrap;rounded=0;fontFamily=Helvetica;" parent="WIyWlLk6GJQsqaUBKTNV-1" vertex="1">
          <mxGeometry x="385" y="1890" width="60" height="30" as="geometry" />
        </mxCell>
        <mxCell id="nW7y54d8p8P1JJJMh4Ax-69" value="" style="edgeStyle=orthogonalEdgeStyle;rounded=0;orthogonalLoop=1;jettySize=auto;html=1;dashed=1;fontFamily=Helvetica;" parent="WIyWlLk6GJQsqaUBKTNV-1" source="nW7y54d8p8P1JJJMh4Ax-66" target="nW7y54d8p8P1JJJMh4Ax-68" edge="1">
          <mxGeometry relative="1" as="geometry" />
        </mxCell>
        <mxCell id="nW7y54d8p8P1JJJMh4Ax-73" value="" style="edgeStyle=orthogonalEdgeStyle;rounded=0;orthogonalLoop=1;jettySize=auto;html=1;fontFamily=Helvetica;" parent="WIyWlLk6GJQsqaUBKTNV-1" source="nW7y54d8p8P1JJJMh4Ax-66" target="nW7y54d8p8P1JJJMh4Ax-72" edge="1">
          <mxGeometry relative="1" as="geometry" />
        </mxCell>
        <mxCell id="nW7y54d8p8P1JJJMh4Ax-66" value="Declaración del primer polinomio" style="whiteSpace=wrap;html=1;rounded=1;glass=0;strokeWidth=1;shadow=0;fontFamily=Helvetica;" parent="WIyWlLk6GJQsqaUBKTNV-1" vertex="1">
          <mxGeometry x="320" y="1969" width="120" height="60" as="geometry" />
        </mxCell>
        <mxCell id="nW7y54d8p8P1JJJMh4Ax-71" value="" style="edgeStyle=orthogonalEdgeStyle;rounded=0;orthogonalLoop=1;jettySize=auto;html=1;fontFamily=Helvetica;" parent="WIyWlLk6GJQsqaUBKTNV-1" source="nW7y54d8p8P1JJJMh4Ax-68" target="nW7y54d8p8P1JJJMh4Ax-70" edge="1">
          <mxGeometry relative="1" as="geometry" />
        </mxCell>
        <mxCell id="nW7y54d8p8P1JJJMh4Ax-68" value="Usa el método polyval" style="whiteSpace=wrap;html=1;rounded=1;glass=0;strokeWidth=1;shadow=0;fillColor=#f8cecc;strokeColor=#b85450;fontFamily=Helvetica;" parent="WIyWlLk6GJQsqaUBKTNV-1" vertex="1">
          <mxGeometry x="120" y="1969" width="120" height="60" as="geometry" />
        </mxCell>
        <mxCell id="nW7y54d8p8P1JJJMh4Ax-70" value="Calcula el polinomio del mejor ajuste inicial para los tiempos hasta &lt;code&gt;index_tiempo(h)&lt;/code&gt;." style="whiteSpace=wrap;html=1;fillColor=#f8cecc;strokeColor=#b85450;rounded=1;glass=0;strokeWidth=1;shadow=0;fontFamily=Helvetica;" parent="WIyWlLk6GJQsqaUBKTNV-1" vertex="1">
          <mxGeometry x="-130" y="1963.5" width="170" height="71" as="geometry" />
        </mxCell>
        <mxCell id="nW7y54d8p8P1JJJMh4Ax-75" value="" style="edgeStyle=orthogonalEdgeStyle;rounded=0;orthogonalLoop=1;jettySize=auto;html=1;dashed=1;fontFamily=Helvetica;" parent="WIyWlLk6GJQsqaUBKTNV-1" source="nW7y54d8p8P1JJJMh4Ax-72" target="nW7y54d8p8P1JJJMh4Ax-74" edge="1">
          <mxGeometry relative="1" as="geometry" />
        </mxCell>
        <mxCell id="nW7y54d8p8P1JJJMh4Ax-79" value="" style="edgeStyle=orthogonalEdgeStyle;rounded=0;orthogonalLoop=1;jettySize=auto;html=1;fontFamily=Helvetica;" parent="WIyWlLk6GJQsqaUBKTNV-1" source="nW7y54d8p8P1JJJMh4Ax-72" target="nW7y54d8p8P1JJJMh4Ax-78" edge="1">
          <mxGeometry relative="1" as="geometry" />
        </mxCell>
        <mxCell id="nW7y54d8p8P1JJJMh4Ax-72" value="Declaración del tiempo máximo" style="whiteSpace=wrap;html=1;rounded=1;glass=0;strokeWidth=1;shadow=0;fontFamily=Helvetica;" parent="WIyWlLk6GJQsqaUBKTNV-1" vertex="1">
          <mxGeometry x="320" y="2109" width="120" height="60" as="geometry" />
        </mxCell>
        <mxCell id="nW7y54d8p8P1JJJMh4Ax-77" value="" style="edgeStyle=orthogonalEdgeStyle;rounded=0;orthogonalLoop=1;jettySize=auto;html=1;fontFamily=Helvetica;" parent="WIyWlLk6GJQsqaUBKTNV-1" source="nW7y54d8p8P1JJJMh4Ax-74" target="nW7y54d8p8P1JJJMh4Ax-76" edge="1">
          <mxGeometry relative="1" as="geometry" />
        </mxCell>
        <mxCell id="nW7y54d8p8P1JJJMh4Ax-74" value="Usa el método fix" style="whiteSpace=wrap;html=1;rounded=1;glass=0;strokeWidth=1;shadow=0;fillColor=#e1d5e7;strokeColor=#9673a6;fontFamily=Helvetica;" parent="WIyWlLk6GJQsqaUBKTNV-1" vertex="1">
          <mxGeometry x="120" y="2109" width="120" height="60" as="geometry" />
        </mxCell>
        <mxCell id="nW7y54d8p8P1JJJMh4Ax-76" value="Define &lt;code&gt;tiempo_max&lt;/code&gt; como el 80% del total de la longitud de &lt;code&gt;velocidad_sin_filtrar{h}&lt;/code&gt;" style="whiteSpace=wrap;html=1;fillColor=#e1d5e7;strokeColor=#9673a6;rounded=1;glass=0;strokeWidth=1;shadow=0;fontFamily=Helvetica;" parent="WIyWlLk6GJQsqaUBKTNV-1" vertex="1">
          <mxGeometry x="-150" y="2109" width="190" height="60" as="geometry" />
        </mxCell>
        <mxCell id="nW7y54d8p8P1JJJMh4Ax-81" value="" style="edgeStyle=orthogonalEdgeStyle;rounded=0;orthogonalLoop=1;jettySize=auto;html=1;fontFamily=Helvetica;" parent="WIyWlLk6GJQsqaUBKTNV-1" source="nW7y54d8p8P1JJJMh4Ax-78" target="nW7y54d8p8P1JJJMh4Ax-80" edge="1">
          <mxGeometry relative="1" as="geometry" />
        </mxCell>
        <mxCell id="nW7y54d8p8P1JJJMh4Ax-78" value="Declaración del salto de tiempo basado en la frecuencia de la componente actual" style="whiteSpace=wrap;html=1;rounded=1;glass=0;strokeWidth=1;shadow=0;fontFamily=Helvetica;" parent="WIyWlLk6GJQsqaUBKTNV-1" vertex="1">
          <mxGeometry x="310" y="2249" width="140" height="61" as="geometry" />
        </mxCell>
        <mxCell id="nW7y54d8p8P1JJJMh4Ax-83" value="" style="edgeStyle=orthogonalEdgeStyle;rounded=0;orthogonalLoop=1;jettySize=auto;html=1;dashed=1;fontFamily=Helvetica;" parent="WIyWlLk6GJQsqaUBKTNV-1" source="nW7y54d8p8P1JJJMh4Ax-80" target="nW7y54d8p8P1JJJMh4Ax-82" edge="1">
          <mxGeometry relative="1" as="geometry" />
        </mxCell>
        <mxCell id="nW7y54d8p8P1JJJMh4Ax-87" value="" style="edgeStyle=orthogonalEdgeStyle;rounded=0;orthogonalLoop=1;jettySize=auto;html=1;fontFamily=Helvetica;" parent="WIyWlLk6GJQsqaUBKTNV-1" source="nW7y54d8p8P1JJJMh4Ax-80" target="nW7y54d8p8P1JJJMh4Ax-86" edge="1">
          <mxGeometry relative="1" as="geometry" />
        </mxCell>
        <mxCell id="nW7y54d8p8P1JJJMh4Ax-80" value="Declaración de ABC_t_inico" style="whiteSpace=wrap;html=1;rounded=1;glass=0;strokeWidth=1;shadow=0;fontFamily=Helvetica;" parent="WIyWlLk6GJQsqaUBKTNV-1" vertex="1">
          <mxGeometry x="320" y="2390.5" width="120" height="60" as="geometry" />
        </mxCell>
        <mxCell id="nW7y54d8p8P1JJJMh4Ax-82" value="Define &lt;code&gt;ABC_t_inicio&lt;/code&gt; como el índice de tiempo de inicio más el &lt;code&gt;salto_tiempo&lt;/code&gt;." style="whiteSpace=wrap;html=1;rounded=1;glass=0;strokeWidth=1;shadow=0;fillColor=#f8cecc;strokeColor=#b85450;fontFamily=Helvetica;" parent="WIyWlLk6GJQsqaUBKTNV-1" vertex="1">
          <mxGeometry x="80" y="2390.5" width="160" height="60" as="geometry" />
        </mxCell>
        <mxCell id="nW7y54d8p8P1JJJMh4Ax-89" value="" style="edgeStyle=orthogonalEdgeStyle;rounded=0;orthogonalLoop=1;jettySize=auto;html=1;fontFamily=Helvetica;" parent="WIyWlLk6GJQsqaUBKTNV-1" source="nW7y54d8p8P1JJJMh4Ax-86" target="nW7y54d8p8P1JJJMh4Ax-88" edge="1">
          <mxGeometry relative="1" as="geometry" />
        </mxCell>
        <mxCell id="nW7y54d8p8P1JJJMh4Ax-91" value="" style="edgeStyle=orthogonalEdgeStyle;rounded=0;orthogonalLoop=1;jettySize=auto;html=1;fontFamily=Helvetica;" parent="WIyWlLk6GJQsqaUBKTNV-1" source="nW7y54d8p8P1JJJMh4Ax-86" target="nW7y54d8p8P1JJJMh4Ax-90" edge="1">
          <mxGeometry relative="1" as="geometry" />
        </mxCell>
        <mxCell id="nW7y54d8p8P1JJJMh4Ax-86" value="Declaración del contador con valor 1 y limpieza de valores" style="whiteSpace=wrap;html=1;rounded=1;glass=0;strokeWidth=1;shadow=0;fontFamily=Helvetica;" parent="WIyWlLk6GJQsqaUBKTNV-1" vertex="1">
          <mxGeometry x="320" y="2530.5" width="120" height="60" as="geometry" />
        </mxCell>
        <mxCell id="nW7y54d8p8P1JJJMh4Ax-88" value="Inicializa el contador y limpia las variables &lt;code&gt;rmsABC&lt;/code&gt;, &lt;code&gt;tiempo_iteracion&lt;/code&gt;, &lt;code&gt;coef&lt;/code&gt;, y &lt;code&gt;lineas&lt;/code&gt;." style="whiteSpace=wrap;html=1;rounded=1;glass=0;strokeWidth=1;shadow=0;fillColor=#e1d5e7;strokeColor=#9673a6;fontFamily=Helvetica;" parent="WIyWlLk6GJQsqaUBKTNV-1" vertex="1">
          <mxGeometry x="60" y="2530.5" width="180" height="60" as="geometry" />
        </mxCell>
        <mxCell id="nW7y54d8p8P1JJJMh4Ax-93" value="" style="edgeStyle=orthogonalEdgeStyle;rounded=0;orthogonalLoop=1;jettySize=auto;html=1;fontFamily=Helvetica;" parent="WIyWlLk6GJQsqaUBKTNV-1" source="nW7y54d8p8P1JJJMh4Ax-90" target="nW7y54d8p8P1JJJMh4Ax-92" edge="1">
          <mxGeometry relative="1" as="geometry" />
        </mxCell>
        <mxCell id="nW7y54d8p8P1JJJMh4Ax-90" value="Para&amp;nbsp; cada orden en el numero de polinomios" style="whiteSpace=wrap;html=1;rounded=1;glass=0;strokeWidth=1;shadow=0;fontFamily=Helvetica;" parent="WIyWlLk6GJQsqaUBKTNV-1" vertex="1">
          <mxGeometry x="320" y="2670.5" width="120" height="60" as="geometry" />
        </mxCell>
        <mxCell id="nW7y54d8p8P1JJJMh4Ax-95" value="" style="edgeStyle=orthogonalEdgeStyle;rounded=0;orthogonalLoop=1;jettySize=auto;html=1;dashed=1;fontFamily=Helvetica;" parent="WIyWlLk6GJQsqaUBKTNV-1" source="nW7y54d8p8P1JJJMh4Ax-92" target="nW7y54d8p8P1JJJMh4Ax-94" edge="1">
          <mxGeometry relative="1" as="geometry" />
        </mxCell>
        <mxCell id="nW7y54d8p8P1JJJMh4Ax-97" value="" style="edgeStyle=orthogonalEdgeStyle;rounded=0;orthogonalLoop=1;jettySize=auto;html=1;fontFamily=Helvetica;" parent="WIyWlLk6GJQsqaUBKTNV-1" source="nW7y54d8p8P1JJJMh4Ax-92" target="nW7y54d8p8P1JJJMh4Ax-96" edge="1">
          <mxGeometry relative="1" as="geometry" />
        </mxCell>
        <mxCell id="nW7y54d8p8P1JJJMh4Ax-92" value="Para cada iteracion de tiempo" style="whiteSpace=wrap;html=1;rounded=1;glass=0;strokeWidth=1;shadow=0;fontFamily=Helvetica;" parent="WIyWlLk6GJQsqaUBKTNV-1" vertex="1">
          <mxGeometry x="320" y="2810.5" width="120" height="60" as="geometry" />
        </mxCell>
        <mxCell id="nW7y54d8p8P1JJJMh4Ax-94" value="Itera desde &lt;code&gt;ABC_t_inicio&lt;/code&gt; hasta &lt;code&gt;tiempo_max&lt;/code&gt; con pasos de &lt;code&gt;salto_tiempo&lt;/code&gt;" style="whiteSpace=wrap;html=1;rounded=1;glass=0;strokeWidth=1;shadow=0;fillColor=#f8cecc;strokeColor=#b85450;fontFamily=Helvetica;" parent="WIyWlLk6GJQsqaUBKTNV-1" vertex="1">
          <mxGeometry x="90" y="2805.25" width="160" height="70.5" as="geometry" />
        </mxCell>
        <mxCell id="nW7y54d8p8P1JJJMh4Ax-184" value="" style="edgeStyle=orthogonalEdgeStyle;rounded=0;orthogonalLoop=1;jettySize=auto;html=1;" parent="WIyWlLk6GJQsqaUBKTNV-1" source="nW7y54d8p8P1JJJMh4Ax-96" target="nW7y54d8p8P1JJJMh4Ax-183" edge="1">
          <mxGeometry relative="1" as="geometry" />
        </mxCell>
        <mxCell id="nW7y54d8p8P1JJJMh4Ax-96" value="Limpia las variables &lt;code&gt;xrms&lt;/code&gt;, &lt;code&gt;coeficientes&lt;/code&gt;, y &lt;code&gt;ABC_ajuste&lt;/code&gt; en cada iteración." style="whiteSpace=wrap;html=1;rounded=1;glass=0;strokeWidth=1;shadow=0;fontFamily=Helvetica;" parent="WIyWlLk6GJQsqaUBKTNV-1" vertex="1">
          <mxGeometry x="310" y="2950.5" width="140" height="69.5" as="geometry" />
        </mxCell>
        <mxCell id="nW7y54d8p8P1JJJMh4Ax-186" value="" style="edgeStyle=orthogonalEdgeStyle;rounded=0;orthogonalLoop=1;jettySize=auto;html=1;dashed=1;" parent="WIyWlLk6GJQsqaUBKTNV-1" source="nW7y54d8p8P1JJJMh4Ax-183" target="nW7y54d8p8P1JJJMh4Ax-185" edge="1">
          <mxGeometry relative="1" as="geometry" />
        </mxCell>
        <mxCell id="nW7y54d8p8P1JJJMh4Ax-188" value="" style="edgeStyle=orthogonalEdgeStyle;rounded=0;orthogonalLoop=1;jettySize=auto;html=1;" parent="WIyWlLk6GJQsqaUBKTNV-1" source="nW7y54d8p8P1JJJMh4Ax-183" target="nW7y54d8p8P1JJJMh4Ax-187" edge="1">
          <mxGeometry relative="1" as="geometry" />
        </mxCell>
        <mxCell id="nW7y54d8p8P1JJJMh4Ax-183" value="Ajuste polinomial" style="whiteSpace=wrap;html=1;rounded=1;glass=0;strokeWidth=1;shadow=0;" parent="WIyWlLk6GJQsqaUBKTNV-1" vertex="1">
          <mxGeometry x="320" y="3104.75" width="120" height="60" as="geometry" />
        </mxCell>
        <mxCell id="nW7y54d8p8P1JJJMh4Ax-185" value="Calcula los coeficientes del polinomio para los datos desde &lt;code&gt;iteracion&lt;/code&gt; hasta el final." style="whiteSpace=wrap;html=1;rounded=1;glass=0;strokeWidth=1;shadow=0;fillColor=#f8cecc;strokeColor=#b85450;" parent="WIyWlLk6GJQsqaUBKTNV-1" vertex="1">
          <mxGeometry x="60" y="3104.75" width="180" height="60" as="geometry" />
        </mxCell>
        <mxCell id="nW7y54d8p8P1JJJMh4Ax-190" value="" style="edgeStyle=orthogonalEdgeStyle;rounded=0;orthogonalLoop=1;jettySize=auto;html=1;" parent="WIyWlLk6GJQsqaUBKTNV-1" source="nW7y54d8p8P1JJJMh4Ax-187" target="nW7y54d8p8P1JJJMh4Ax-189" edge="1">
          <mxGeometry relative="1" as="geometry" />
        </mxCell>
        <mxCell id="nW7y54d8p8P1JJJMh4Ax-187" value="Evalúa el polinomio desde &lt;code&gt;iteracion&lt;/code&gt; hasta el final." style="whiteSpace=wrap;html=1;rounded=1;glass=0;strokeWidth=1;shadow=0;" parent="WIyWlLk6GJQsqaUBKTNV-1" vertex="1">
          <mxGeometry x="320" y="3244.75" width="120" height="60" as="geometry" />
        </mxCell>
        <mxCell id="nW7y54d8p8P1JJJMh4Ax-192" value="" style="edgeStyle=orthogonalEdgeStyle;rounded=0;orthogonalLoop=1;jettySize=auto;html=1;dashed=1;" parent="WIyWlLk6GJQsqaUBKTNV-1" source="nW7y54d8p8P1JJJMh4Ax-189" target="nW7y54d8p8P1JJJMh4Ax-191" edge="1">
          <mxGeometry relative="1" as="geometry" />
        </mxCell>
        <mxCell id="nW7y54d8p8P1JJJMh4Ax-194" value="" style="edgeStyle=orthogonalEdgeStyle;rounded=0;orthogonalLoop=1;jettySize=auto;html=1;" parent="WIyWlLk6GJQsqaUBKTNV-1" source="nW7y54d8p8P1JJJMh4Ax-189" target="nW7y54d8p8P1JJJMh4Ax-193" edge="1">
          <mxGeometry relative="1" as="geometry" />
        </mxCell>
        <mxCell id="nW7y54d8p8P1JJJMh4Ax-189" value="Definición de ABC_spline" style="whiteSpace=wrap;html=1;rounded=1;glass=0;strokeWidth=1;shadow=0;" parent="WIyWlLk6GJQsqaUBKTNV-1" vertex="1">
          <mxGeometry x="320" y="3384.75" width="120" height="60" as="geometry" />
        </mxCell>
        <mxCell id="nW7y54d8p8P1JJJMh4Ax-191" value="Calcula una interpolación spline entre los puntos clave para suavizar la transición entre los segmentos polinomiales." style="whiteSpace=wrap;html=1;rounded=1;glass=0;strokeWidth=1;shadow=0;fillColor=#f8cecc;strokeColor=#b85450;" parent="WIyWlLk6GJQsqaUBKTNV-1" vertex="1">
          <mxGeometry x="30" y="3377.38" width="210" height="74.75" as="geometry" />
        </mxCell>
        <mxCell id="nW7y54d8p8P1JJJMh4Ax-196" value="" style="edgeStyle=orthogonalEdgeStyle;rounded=0;orthogonalLoop=1;jettySize=auto;html=1;dashed=1;" parent="WIyWlLk6GJQsqaUBKTNV-1" source="nW7y54d8p8P1JJJMh4Ax-193" target="nW7y54d8p8P1JJJMh4Ax-195" edge="1">
          <mxGeometry relative="1" as="geometry" />
        </mxCell>
        <mxCell id="nW7y54d8p8P1JJJMh4Ax-198" value="" style="edgeStyle=orthogonalEdgeStyle;rounded=0;orthogonalLoop=1;jettySize=auto;html=1;" parent="WIyWlLk6GJQsqaUBKTNV-1" source="nW7y54d8p8P1JJJMh4Ax-193" target="nW7y54d8p8P1JJJMh4Ax-197" edge="1">
          <mxGeometry relative="1" as="geometry" />
        </mxCell>
        <mxCell id="nW7y54d8p8P1JJJMh4Ax-193" value="Definición de ABC_ajuste" style="whiteSpace=wrap;html=1;rounded=1;glass=0;strokeWidth=1;shadow=0;" parent="WIyWlLk6GJQsqaUBKTNV-1" vertex="1">
          <mxGeometry x="320" y="3524.75" width="120" height="60" as="geometry" />
        </mxCell>
        <mxCell id="nW7y54d8p8P1JJJMh4Ax-195" value="Combina el polinomio inicial, el spline y el nuevo polinomio para formar el ajuste completo." style="whiteSpace=wrap;html=1;rounded=1;glass=0;strokeWidth=1;shadow=0;fillColor=#e1d5e7;strokeColor=#9673a6;" parent="WIyWlLk6GJQsqaUBKTNV-1" vertex="1">
          <mxGeometry x="80" y="3522.12" width="160" height="65.25" as="geometry" />
        </mxCell>
        <mxCell id="nW7y54d8p8P1JJJMh4Ax-200" value="" style="edgeStyle=orthogonalEdgeStyle;rounded=0;orthogonalLoop=1;jettySize=auto;html=1;" parent="WIyWlLk6GJQsqaUBKTNV-1" source="nW7y54d8p8P1JJJMh4Ax-197" target="nW7y54d8p8P1JJJMh4Ax-199" edge="1">
          <mxGeometry relative="1" as="geometry" />
        </mxCell>
        <mxCell id="nW7y54d8p8P1JJJMh4Ax-202" value="" style="edgeStyle=orthogonalEdgeStyle;rounded=0;orthogonalLoop=1;jettySize=auto;html=1;" parent="WIyWlLk6GJQsqaUBKTNV-1" source="nW7y54d8p8P1JJJMh4Ax-197" target="nW7y54d8p8P1JJJMh4Ax-201" edge="1">
          <mxGeometry relative="1" as="geometry" />
        </mxCell>
        <mxCell id="nW7y54d8p8P1JJJMh4Ax-197" value="Definición de xrms" style="whiteSpace=wrap;html=1;rounded=1;glass=0;strokeWidth=1;shadow=0;" parent="WIyWlLk6GJQsqaUBKTNV-1" vertex="1">
          <mxGeometry x="320" y="3664.75" width="120" height="60" as="geometry" />
        </mxCell>
        <mxCell id="nW7y54d8p8P1JJJMh4Ax-199" value="Calcula la diferencia entre los datos de velocidad y el ajuste completo." style="whiteSpace=wrap;html=1;rounded=1;glass=0;strokeWidth=1;shadow=0;fillColor=#f8cecc;strokeColor=#b85450;" parent="WIyWlLk6GJQsqaUBKTNV-1" vertex="1">
          <mxGeometry x="120" y="3664.75" width="120" height="60" as="geometry" />
        </mxCell>
        <mxCell id="nW7y54d8p8P1JJJMh4Ax-204" value="" style="edgeStyle=orthogonalEdgeStyle;rounded=0;orthogonalLoop=1;jettySize=auto;html=1;dashed=1;" parent="WIyWlLk6GJQsqaUBKTNV-1" source="nW7y54d8p8P1JJJMh4Ax-201" target="nW7y54d8p8P1JJJMh4Ax-203" edge="1">
          <mxGeometry relative="1" as="geometry" />
        </mxCell>
        <mxCell id="nW7y54d8p8P1JJJMh4Ax-206" value="" style="edgeStyle=orthogonalEdgeStyle;rounded=0;orthogonalLoop=1;jettySize=auto;html=1;" parent="WIyWlLk6GJQsqaUBKTNV-1" source="nW7y54d8p8P1JJJMh4Ax-201" target="nW7y54d8p8P1JJJMh4Ax-205" edge="1">
          <mxGeometry relative="1" as="geometry" />
        </mxCell>
        <mxCell id="nW7y54d8p8P1JJJMh4Ax-201" value="Guardar datos de cada iteración" style="whiteSpace=wrap;html=1;rounded=1;glass=0;strokeWidth=1;shadow=0;" parent="WIyWlLk6GJQsqaUBKTNV-1" vertex="1">
          <mxGeometry x="320" y="3804.75" width="120" height="60" as="geometry" />
        </mxCell>
        <mxCell id="nW7y54d8p8P1JJJMh4Ax-208" value="" style="edgeStyle=orthogonalEdgeStyle;rounded=0;orthogonalLoop=1;jettySize=auto;html=1;" parent="WIyWlLk6GJQsqaUBKTNV-1" source="nW7y54d8p8P1JJJMh4Ax-203" target="nW7y54d8p8P1JJJMh4Ax-207" edge="1">
          <mxGeometry relative="1" as="geometry" />
        </mxCell>
        <mxCell id="nW7y54d8p8P1JJJMh4Ax-203" value="Guarda el tiempo de iteración, los coeficientes y el ajuste completo en sus respectivas variables" style="whiteSpace=wrap;html=1;rounded=1;glass=0;strokeWidth=1;shadow=0;fillColor=#e1d5e7;strokeColor=#9673a6;" parent="WIyWlLk6GJQsqaUBKTNV-1" vertex="1">
          <mxGeometry x="70" y="3792.12" width="180" height="85.25" as="geometry" />
        </mxCell>
        <mxCell id="nW7y54d8p8P1JJJMh4Ax-210" value="" style="edgeStyle=orthogonalEdgeStyle;rounded=0;orthogonalLoop=1;jettySize=auto;html=1;" parent="WIyWlLk6GJQsqaUBKTNV-1" source="nW7y54d8p8P1JJJMh4Ax-205" target="nW7y54d8p8P1JJJMh4Ax-209" edge="1">
          <mxGeometry relative="1" as="geometry" />
        </mxCell>
        <mxCell id="nW7y54d8p8P1JJJMh4Ax-205" value="Aumenta el contador." style="whiteSpace=wrap;html=1;rounded=1;glass=0;strokeWidth=1;shadow=0;" parent="WIyWlLk6GJQsqaUBKTNV-1" vertex="1">
          <mxGeometry x="320" y="3944.75" width="120" height="60" as="geometry" />
        </mxCell>
        <mxCell id="nW7y54d8p8P1JJJMh4Ax-207" value="&lt;div&gt;rmsABC(cont)=rms(xrms);&lt;/div&gt;&lt;div&gt;tiempo_iteracion(cont)=iteracion;&lt;/div&gt;&lt;div&gt;coef{cont}=coeficientes;&lt;/div&gt;&lt;div&gt;lineas{cont}=ABC_ajuste;&lt;/div&gt;" style="whiteSpace=wrap;html=1;fillColor=#e1d5e7;strokeColor=#9673a6;rounded=1;glass=0;strokeWidth=1;shadow=0;align=left;" parent="WIyWlLk6GJQsqaUBKTNV-1" vertex="1">
          <mxGeometry x="-230" y="3797.12" width="190" height="75.26" as="geometry" />
        </mxCell>
        <mxCell id="nW7y54d8p8P1JJJMh4Ax-211" style="edgeStyle=orthogonalEdgeStyle;rounded=0;orthogonalLoop=1;jettySize=auto;html=1;exitX=1;exitY=0.5;exitDx=0;exitDy=0;" parent="WIyWlLk6GJQsqaUBKTNV-1" source="nW7y54d8p8P1JJJMh4Ax-209" target="nW7y54d8p8P1JJJMh4Ax-92" edge="1">
          <mxGeometry relative="1" as="geometry">
            <mxPoint x="445.0028571428569" y="4114.857142857143" as="sourcePoint" />
            <mxPoint x="465.11" y="2840.5" as="targetPoint" />
            <Array as="points">
              <mxPoint x="485" y="4115" />
              <mxPoint x="485" y="2840" />
            </Array>
          </mxGeometry>
        </mxCell>
        <mxCell id="nW7y54d8p8P1JJJMh4Ax-214" value="" style="edgeStyle=orthogonalEdgeStyle;rounded=0;orthogonalLoop=1;jettySize=auto;html=1;" parent="WIyWlLk6GJQsqaUBKTNV-1" source="nW7y54d8p8P1JJJMh4Ax-209" target="nW7y54d8p8P1JJJMh4Ax-213" edge="1">
          <mxGeometry relative="1" as="geometry" />
        </mxCell>
        <mxCell id="nW7y54d8p8P1JJJMh4Ax-209" value="¿Quedan mas iteraciones?" style="rhombus;whiteSpace=wrap;html=1;rounded=1;glass=0;strokeWidth=1;shadow=0;" parent="WIyWlLk6GJQsqaUBKTNV-1" vertex="1">
          <mxGeometry x="340" y="4074.75" width="80" height="80" as="geometry" />
        </mxCell>
        <mxCell id="nW7y54d8p8P1JJJMh4Ax-212" value="Si" style="text;html=1;strokeColor=none;fillColor=none;align=center;verticalAlign=middle;whiteSpace=wrap;rounded=0;" parent="WIyWlLk6GJQsqaUBKTNV-1" vertex="1">
          <mxGeometry x="420" y="4077" width="60" height="30" as="geometry" />
        </mxCell>
        <mxCell id="nW7y54d8p8P1JJJMh4Ax-217" style="edgeStyle=orthogonalEdgeStyle;rounded=0;orthogonalLoop=1;jettySize=auto;html=1;entryX=1;entryY=0.5;entryDx=0;entryDy=0;" parent="WIyWlLk6GJQsqaUBKTNV-1" source="nW7y54d8p8P1JJJMh4Ax-213" target="nW7y54d8p8P1JJJMh4Ax-90" edge="1">
          <mxGeometry relative="1" as="geometry">
            <Array as="points">
              <mxPoint x="510" y="4270" />
              <mxPoint x="510" y="2701" />
            </Array>
          </mxGeometry>
        </mxCell>
        <mxCell id="nW7y54d8p8P1JJJMh4Ax-220" value="" style="edgeStyle=orthogonalEdgeStyle;rounded=0;orthogonalLoop=1;jettySize=auto;html=1;" parent="WIyWlLk6GJQsqaUBKTNV-1" source="nW7y54d8p8P1JJJMh4Ax-213" target="nW7y54d8p8P1JJJMh4Ax-219" edge="1">
          <mxGeometry relative="1" as="geometry" />
        </mxCell>
        <mxCell id="nW7y54d8p8P1JJJMh4Ax-213" value="¿Quedan mas datos de orden?" style="rhombus;whiteSpace=wrap;html=1;rounded=1;glass=0;strokeWidth=1;shadow=0;" parent="WIyWlLk6GJQsqaUBKTNV-1" vertex="1">
          <mxGeometry x="340" y="4234.75" width="80" height="80" as="geometry" />
        </mxCell>
        <mxCell id="nW7y54d8p8P1JJJMh4Ax-215" value="No" style="text;html=1;strokeColor=none;fillColor=none;align=center;verticalAlign=middle;whiteSpace=wrap;rounded=0;" parent="WIyWlLk6GJQsqaUBKTNV-1" vertex="1">
          <mxGeometry x="385" y="4160" width="60" height="30" as="geometry" />
        </mxCell>
        <mxCell id="nW7y54d8p8P1JJJMh4Ax-216" value="Si" style="text;html=1;strokeColor=none;fillColor=none;align=center;verticalAlign=middle;whiteSpace=wrap;rounded=0;" parent="WIyWlLk6GJQsqaUBKTNV-1" vertex="1">
          <mxGeometry x="420" y="4230" width="60" height="30" as="geometry" />
        </mxCell>
        <mxCell id="nW7y54d8p8P1JJJMh4Ax-218" value="No" style="text;html=1;strokeColor=none;fillColor=none;align=center;verticalAlign=middle;whiteSpace=wrap;rounded=0;" parent="WIyWlLk6GJQsqaUBKTNV-1" vertex="1">
          <mxGeometry x="414" y="4310" width="60" height="30" as="geometry" />
        </mxCell>
        <mxCell id="nW7y54d8p8P1JJJMh4Ax-222" value="" style="edgeStyle=orthogonalEdgeStyle;rounded=0;orthogonalLoop=1;jettySize=auto;html=1;dashed=1;" parent="WIyWlLk6GJQsqaUBKTNV-1" source="nW7y54d8p8P1JJJMh4Ax-219" target="nW7y54d8p8P1JJJMh4Ax-221" edge="1">
          <mxGeometry relative="1" as="geometry" />
        </mxCell>
        <mxCell id="nW7y54d8p8P1JJJMh4Ax-224" value="" style="edgeStyle=orthogonalEdgeStyle;rounded=0;orthogonalLoop=1;jettySize=auto;html=1;" parent="WIyWlLk6GJQsqaUBKTNV-1" source="nW7y54d8p8P1JJJMh4Ax-219" target="nW7y54d8p8P1JJJMh4Ax-223" edge="1">
          <mxGeometry relative="1" as="geometry" />
        </mxCell>
        <mxCell id="nW7y54d8p8P1JJJMh4Ax-219" value="Definición del índice menor para mejorar el ajuste" style="whiteSpace=wrap;html=1;rounded=1;glass=0;strokeWidth=1;shadow=0;" parent="WIyWlLk6GJQsqaUBKTNV-1" vertex="1">
          <mxGeometry x="320" y="4404.75" width="120" height="60" as="geometry" />
        </mxCell>
        <mxCell id="nW7y54d8p8P1JJJMh4Ax-221" value="Encuentra el índice del menor RMS en &lt;code&gt;rmsABC&lt;/code&gt;." style="whiteSpace=wrap;html=1;rounded=1;glass=0;strokeWidth=1;shadow=0;fillColor=#f8cecc;strokeColor=#b85450;" parent="WIyWlLk6GJQsqaUBKTNV-1" vertex="1">
          <mxGeometry x="120" y="4404.75" width="120" height="60" as="geometry" />
        </mxCell>
        <mxCell id="nW7y54d8p8P1JJJMh4Ax-226" value="" style="edgeStyle=orthogonalEdgeStyle;rounded=0;orthogonalLoop=1;jettySize=auto;html=1;" parent="WIyWlLk6GJQsqaUBKTNV-1" source="nW7y54d8p8P1JJJMh4Ax-223" target="nW7y54d8p8P1JJJMh4Ax-225" edge="1">
          <mxGeometry relative="1" as="geometry" />
        </mxCell>
        <mxCell id="nW7y54d8p8P1JJJMh4Ax-223" value="Limpieza de la variable mejor_ajuste" style="whiteSpace=wrap;html=1;rounded=1;glass=0;strokeWidth=1;shadow=0;" parent="WIyWlLk6GJQsqaUBKTNV-1" vertex="1">
          <mxGeometry x="320" y="4544.75" width="120" height="60" as="geometry" />
        </mxCell>
        <mxCell id="nW7y54d8p8P1JJJMh4Ax-228" value="" style="edgeStyle=orthogonalEdgeStyle;rounded=0;orthogonalLoop=1;jettySize=auto;html=1;dashed=1;dashPattern=8 8;" parent="WIyWlLk6GJQsqaUBKTNV-1" source="nW7y54d8p8P1JJJMh4Ax-225" target="nW7y54d8p8P1JJJMh4Ax-227" edge="1">
          <mxGeometry relative="1" as="geometry" />
        </mxCell>
        <mxCell id="nW7y54d8p8P1JJJMh4Ax-232" value="" style="edgeStyle=orthogonalEdgeStyle;rounded=0;orthogonalLoop=1;jettySize=auto;html=1;" parent="WIyWlLk6GJQsqaUBKTNV-1" source="nW7y54d8p8P1JJJMh4Ax-225" target="nW7y54d8p8P1JJJMh4Ax-231" edge="1">
          <mxGeometry relative="1" as="geometry" />
        </mxCell>
        <mxCell id="nW7y54d8p8P1JJJMh4Ax-225" value="Nueva definición de mejor_ajuste" style="whiteSpace=wrap;html=1;rounded=1;glass=0;strokeWidth=1;shadow=0;" parent="WIyWlLk6GJQsqaUBKTNV-1" vertex="1">
          <mxGeometry x="320" y="4684.75" width="120" height="60" as="geometry" />
        </mxCell>
        <mxCell id="nW7y54d8p8P1JJJMh4Ax-230" value="" style="edgeStyle=orthogonalEdgeStyle;rounded=0;orthogonalLoop=1;jettySize=auto;html=1;" parent="WIyWlLk6GJQsqaUBKTNV-1" source="nW7y54d8p8P1JJJMh4Ax-227" target="nW7y54d8p8P1JJJMh4Ax-229" edge="1">
          <mxGeometry relative="1" as="geometry" />
        </mxCell>
        <mxCell id="nW7y54d8p8P1JJJMh4Ax-227" value="mejor_ajuste = gradient(lineas{indice_menor}, vector_tiempo{h});" style="whiteSpace=wrap;html=1;rounded=1;glass=0;strokeWidth=1;shadow=0;fillColor=#e1d5e7;strokeColor=#9673a6;" parent="WIyWlLk6GJQsqaUBKTNV-1" vertex="1">
          <mxGeometry x="85" y="4684.75" width="170" height="60" as="geometry" />
        </mxCell>
        <mxCell id="nW7y54d8p8P1JJJMh4Ax-229" value="Calcula la derivada del mejor ajuste y la grafica." style="whiteSpace=wrap;html=1;rounded=1;glass=0;strokeWidth=1;shadow=0;fillColor=#e1d5e7;strokeColor=#9673a6;" parent="WIyWlLk6GJQsqaUBKTNV-1" vertex="1">
          <mxGeometry x="-80" y="4684.75" width="120" height="60" as="geometry" />
        </mxCell>
        <mxCell id="nW7y54d8p8P1JJJMh4Ax-234" value="" style="edgeStyle=orthogonalEdgeStyle;rounded=0;orthogonalLoop=1;jettySize=auto;html=1;" parent="WIyWlLk6GJQsqaUBKTNV-1" source="nW7y54d8p8P1JJJMh4Ax-231" target="nW7y54d8p8P1JJJMh4Ax-233" edge="1">
          <mxGeometry relative="1" as="geometry" />
        </mxCell>
        <mxCell id="nW7y54d8p8P1JJJMh4Ax-231" value="Actualiza &lt;code&gt;aceleracion_corregida&lt;/code&gt; restando la derivada del mejor ajuste de los datos originales." style="whiteSpace=wrap;html=1;rounded=1;glass=0;strokeWidth=1;shadow=0;" parent="WIyWlLk6GJQsqaUBKTNV-1" vertex="1">
          <mxGeometry x="305" y="4810" width="150" height="85.25" as="geometry" />
        </mxCell>
        <mxCell id="nW7y54d8p8P1JJJMh4Ax-236" value="" style="edgeStyle=orthogonalEdgeStyle;rounded=0;orthogonalLoop=1;jettySize=auto;html=1;" parent="WIyWlLk6GJQsqaUBKTNV-1" source="nW7y54d8p8P1JJJMh4Ax-233" target="nW7y54d8p8P1JJJMh4Ax-235" edge="1">
          <mxGeometry relative="1" as="geometry" />
        </mxCell>
        <mxCell id="nW7y54d8p8P1JJJMh4Ax-233" value="Calcula la velocidad integrando la aceleración corregida y la grafica." style="whiteSpace=wrap;html=1;rounded=1;glass=0;strokeWidth=1;shadow=0;" parent="WIyWlLk6GJQsqaUBKTNV-1" vertex="1">
          <mxGeometry x="310" y="4970" width="140" height="62.13" as="geometry" />
        </mxCell>
        <mxCell id="jgrW-l6k0apfGBNPhtUm-1" value="" style="edgeStyle=orthogonalEdgeStyle;rounded=0;orthogonalLoop=1;jettySize=auto;html=1;" edge="1" parent="WIyWlLk6GJQsqaUBKTNV-1" source="nW7y54d8p8P1JJJMh4Ax-235" target="jgrW-l6k0apfGBNPhtUm-0">
          <mxGeometry relative="1" as="geometry" />
        </mxCell>
        <mxCell id="nW7y54d8p8P1JJJMh4Ax-235" value="Limpia la variable infoQC" style="whiteSpace=wrap;html=1;rounded=1;glass=0;strokeWidth=1;shadow=0;" parent="WIyWlLk6GJQsqaUBKTNV-1" vertex="1">
          <mxGeometry x="320" y="5113.195" width="120" height="60" as="geometry" />
        </mxCell>
        <mxCell id="jgrW-l6k0apfGBNPhtUm-3" value="" style="edgeStyle=orthogonalEdgeStyle;rounded=0;orthogonalLoop=1;jettySize=auto;html=1;dashed=1;" edge="1" parent="WIyWlLk6GJQsqaUBKTNV-1" source="jgrW-l6k0apfGBNPhtUm-0" target="jgrW-l6k0apfGBNPhtUm-2">
          <mxGeometry relative="1" as="geometry" />
        </mxCell>
        <mxCell id="jgrW-l6k0apfGBNPhtUm-5" value="" style="edgeStyle=orthogonalEdgeStyle;rounded=0;orthogonalLoop=1;jettySize=auto;html=1;" edge="1" parent="WIyWlLk6GJQsqaUBKTNV-1" source="jgrW-l6k0apfGBNPhtUm-0" target="jgrW-l6k0apfGBNPhtUm-4">
          <mxGeometry relative="1" as="geometry" />
        </mxCell>
        <mxCell id="jgrW-l6k0apfGBNPhtUm-0" value="Se asigna la información de la componente actual &lt;code&gt;h&lt;/code&gt; de &lt;code&gt;info&lt;/code&gt; a &lt;code&gt;infoQC&lt;/code&gt;" style="whiteSpace=wrap;html=1;rounded=1;glass=0;strokeWidth=1;shadow=0;" vertex="1" parent="WIyWlLk6GJQsqaUBKTNV-1">
          <mxGeometry x="315" y="5250" width="130" height="76.81" as="geometry" />
        </mxCell>
        <mxCell id="jgrW-l6k0apfGBNPhtUm-2" value="&lt;code&gt;info{1}{1,h}&lt;/code&gt; contiene los datos específicos de la componente &lt;code&gt;h&lt;/code&gt;, y esto se copia a &lt;code&gt;infoQC{1}{1,1}&lt;/code&gt;" style="whiteSpace=wrap;html=1;rounded=1;glass=0;strokeWidth=1;shadow=0;fillColor=#f8cecc;strokeColor=#b85450;" vertex="1" parent="WIyWlLk6GJQsqaUBKTNV-1">
          <mxGeometry x="60" y="5252.61" width="170" height="71.59" as="geometry" />
        </mxCell>
        <mxCell id="jgrW-l6k0apfGBNPhtUm-7" value="" style="edgeStyle=orthogonalEdgeStyle;rounded=0;orthogonalLoop=1;jettySize=auto;html=1;dashed=1;" edge="1" parent="WIyWlLk6GJQsqaUBKTNV-1" source="jgrW-l6k0apfGBNPhtUm-4" target="jgrW-l6k0apfGBNPhtUm-6">
          <mxGeometry relative="1" as="geometry" />
        </mxCell>
        <mxCell id="jgrW-l6k0apfGBNPhtUm-9" value="" style="edgeStyle=orthogonalEdgeStyle;rounded=0;orthogonalLoop=1;jettySize=auto;html=1;" edge="1" parent="WIyWlLk6GJQsqaUBKTNV-1" source="jgrW-l6k0apfGBNPhtUm-4" target="jgrW-l6k0apfGBNPhtUm-8">
          <mxGeometry relative="1" as="geometry" />
        </mxCell>
        <mxCell id="jgrW-l6k0apfGBNPhtUm-4" value="Asignación de Velocidad sin Filtrar" style="whiteSpace=wrap;html=1;rounded=1;glass=0;strokeWidth=1;shadow=0;" vertex="1" parent="WIyWlLk6GJQsqaUBKTNV-1">
          <mxGeometry x="320" y="5415.215" width="120" height="60" as="geometry" />
        </mxCell>
        <mxCell id="jgrW-l6k0apfGBNPhtUm-6" value="Asigna los datos de &lt;code&gt;velocidad_sin_filtrar&lt;/code&gt; para la componente &lt;code&gt;h&lt;/code&gt; a la primera posición de &lt;code&gt;vel_sin_filt&lt;/code&gt;" style="whiteSpace=wrap;html=1;rounded=1;glass=0;strokeWidth=1;shadow=0;fillColor=#e1d5e7;strokeColor=#9673a6;" vertex="1" parent="WIyWlLk6GJQsqaUBKTNV-1">
          <mxGeometry x="40" y="5410" width="200" height="70" as="geometry" />
        </mxCell>
        <mxCell id="jgrW-l6k0apfGBNPhtUm-11" value="" style="edgeStyle=orthogonalEdgeStyle;rounded=0;orthogonalLoop=1;jettySize=auto;html=1;" edge="1" parent="WIyWlLk6GJQsqaUBKTNV-1" source="jgrW-l6k0apfGBNPhtUm-8" target="jgrW-l6k0apfGBNPhtUm-10">
          <mxGeometry relative="1" as="geometry" />
        </mxCell>
        <mxCell id="jgrW-l6k0apfGBNPhtUm-8" value="Asigna el vector de tiempo para la componente &lt;code&gt;h&lt;/code&gt; a la variable &lt;code&gt;v_tiempo&lt;/code&gt;" style="whiteSpace=wrap;html=1;rounded=1;glass=0;strokeWidth=1;shadow=0;" vertex="1" parent="WIyWlLk6GJQsqaUBKTNV-1">
          <mxGeometry x="320" y="5555.215" width="120" height="60" as="geometry" />
        </mxCell>
        <mxCell id="jgrW-l6k0apfGBNPhtUm-13" value="" style="edgeStyle=orthogonalEdgeStyle;rounded=0;orthogonalLoop=1;jettySize=auto;html=1;dashed=1;" edge="1" parent="WIyWlLk6GJQsqaUBKTNV-1" source="jgrW-l6k0apfGBNPhtUm-10" target="jgrW-l6k0apfGBNPhtUm-12">
          <mxGeometry relative="1" as="geometry" />
        </mxCell>
        <mxCell id="jgrW-l6k0apfGBNPhtUm-19" value="" style="edgeStyle=orthogonalEdgeStyle;rounded=0;orthogonalLoop=1;jettySize=auto;html=1;" edge="1" parent="WIyWlLk6GJQsqaUBKTNV-1" source="jgrW-l6k0apfGBNPhtUm-10" target="jgrW-l6k0apfGBNPhtUm-18">
          <mxGeometry relative="1" as="geometry" />
        </mxCell>
        <mxCell id="jgrW-l6k0apfGBNPhtUm-10" value="Se&amp;nbsp;evalúa la calidad de los datos" style="whiteSpace=wrap;html=1;rounded=1;glass=0;strokeWidth=1;shadow=0;" vertex="1" parent="WIyWlLk6GJQsqaUBKTNV-1">
          <mxGeometry x="320" y="5695.215" width="120" height="60" as="geometry" />
        </mxCell>
        <mxCell id="jgrW-l6k0apfGBNPhtUm-17" value="" style="edgeStyle=orthogonalEdgeStyle;rounded=0;orthogonalLoop=1;jettySize=auto;html=1;" edge="1" parent="WIyWlLk6GJQsqaUBKTNV-1" source="jgrW-l6k0apfGBNPhtUm-12" target="jgrW-l6k0apfGBNPhtUm-16">
          <mxGeometry relative="1" as="geometry" />
        </mxCell>
        <mxCell id="jgrW-l6k0apfGBNPhtUm-12" value="Llama a la función &lt;code&gt;qualitycheck&lt;/code&gt; con los siguientes parámetros" style="whiteSpace=wrap;html=1;rounded=1;glass=0;strokeWidth=1;shadow=0;fillColor=#f8cecc;strokeColor=#b85450;" vertex="1" parent="WIyWlLk6GJQsqaUBKTNV-1">
          <mxGeometry x="100" y="5695.22" width="140" height="60" as="geometry" />
        </mxCell>
        <mxCell id="jgrW-l6k0apfGBNPhtUm-16" value="&lt;li&gt;&lt;code&gt;index_tiempo(h)&lt;/code&gt;: El índice de tiempo de inicio para la componente &lt;code&gt;h&lt;/code&gt;.&lt;/li&gt;&lt;li&gt;&lt;code&gt;infoQC&lt;/code&gt;: La información de la componente actual, ya preparada en los pasos anteriores.&lt;/li&gt;&lt;li&gt;&lt;code&gt;v_tiempo&lt;/code&gt;: El vector de tiempo para la componente actual.&lt;/li&gt;&lt;li&gt;&lt;code&gt;vel_sin_filt&lt;/code&gt;: La velocidad sin filtrar para la componente actual.&lt;/li&gt;&lt;li&gt;&lt;code&gt;fc1&lt;/code&gt;: La frecuencia de corte baja (en Hz).&lt;/li&gt;&lt;li&gt;&lt;code&gt;limite_lead&lt;/code&gt;: El umbral de error para el inicio del evento.&lt;/li&gt;&lt;li&gt;&lt;code&gt;limite_trail&lt;/code&gt;: El umbral de error para el final del evento.&lt;/li&gt;" style="whiteSpace=wrap;html=1;fillColor=#f8cecc;strokeColor=#b85450;rounded=1;glass=0;strokeWidth=1;shadow=0;align=left;" vertex="1" parent="WIyWlLk6GJQsqaUBKTNV-1">
          <mxGeometry x="-310" y="5590" width="360" height="190" as="geometry" />
        </mxCell>
        <mxCell id="jgrW-l6k0apfGBNPhtUm-21" value="" style="edgeStyle=orthogonalEdgeStyle;rounded=0;orthogonalLoop=1;jettySize=auto;html=1;dashed=1;" edge="1" parent="WIyWlLk6GJQsqaUBKTNV-1" source="jgrW-l6k0apfGBNPhtUm-18" target="jgrW-l6k0apfGBNPhtUm-20">
          <mxGeometry relative="1" as="geometry" />
        </mxCell>
        <mxCell id="jgrW-l6k0apfGBNPhtUm-23" value="" style="edgeStyle=orthogonalEdgeStyle;rounded=0;orthogonalLoop=1;jettySize=auto;html=1;" edge="1" parent="WIyWlLk6GJQsqaUBKTNV-1" source="jgrW-l6k0apfGBNPhtUm-18" target="jgrW-l6k0apfGBNPhtUm-22">
          <mxGeometry relative="1" as="geometry" />
        </mxCell>
        <mxCell id="jgrW-l6k0apfGBNPhtUm-18" value="Se convierten los datos obtenidos de cel a mat" style="whiteSpace=wrap;html=1;rounded=1;glass=0;strokeWidth=1;shadow=0;" vertex="1" parent="WIyWlLk6GJQsqaUBKTNV-1">
          <mxGeometry x="320" y="5835.215" width="120" height="60" as="geometry" />
        </mxCell>
        <mxCell id="jgrW-l6k0apfGBNPhtUm-20" value="Uso de la función cell2mat" style="whiteSpace=wrap;html=1;rounded=1;glass=0;strokeWidth=1;shadow=0;fillColor=#e1d5e7;strokeColor=#9673a6;" vertex="1" parent="WIyWlLk6GJQsqaUBKTNV-1">
          <mxGeometry x="120" y="5835.215" width="120" height="60" as="geometry" />
        </mxCell>
        <mxCell id="jgrW-l6k0apfGBNPhtUm-25" value="" style="edgeStyle=orthogonalEdgeStyle;rounded=0;orthogonalLoop=1;jettySize=auto;html=1;" edge="1" parent="WIyWlLk6GJQsqaUBKTNV-1" source="jgrW-l6k0apfGBNPhtUm-22" target="jgrW-l6k0apfGBNPhtUm-24">
          <mxGeometry relative="1" as="geometry" />
        </mxCell>
        <mxCell id="jgrW-l6k0apfGBNPhtUm-22" value="Se asigna el resultado del proceso a la variable QCval{h}" style="whiteSpace=wrap;html=1;rounded=1;glass=0;strokeWidth=1;shadow=0;" vertex="1" parent="WIyWlLk6GJQsqaUBKTNV-1">
          <mxGeometry x="320" y="5975.215" width="120" height="60" as="geometry" />
        </mxCell>
        <mxCell id="jgrW-l6k0apfGBNPhtUm-27" value="" style="edgeStyle=orthogonalEdgeStyle;rounded=0;orthogonalLoop=1;jettySize=auto;html=1;" edge="1" parent="WIyWlLk6GJQsqaUBKTNV-1" source="jgrW-l6k0apfGBNPhtUm-24" target="jgrW-l6k0apfGBNPhtUm-26">
          <mxGeometry relative="1" as="geometry" />
        </mxCell>
        <mxCell id="jgrW-l6k0apfGBNPhtUm-29" value="" style="edgeStyle=orthogonalEdgeStyle;rounded=0;orthogonalLoop=1;jettySize=auto;html=1;" edge="1" parent="WIyWlLk6GJQsqaUBKTNV-1" source="jgrW-l6k0apfGBNPhtUm-24" target="jgrW-l6k0apfGBNPhtUm-28">
          <mxGeometry relative="1" as="geometry" />
        </mxCell>
        <mxCell id="jgrW-l6k0apfGBNPhtUm-24" value="Mensaje de confirmación" style="whiteSpace=wrap;html=1;rounded=1;glass=0;strokeWidth=1;shadow=0;" vertex="1" parent="WIyWlLk6GJQsqaUBKTNV-1">
          <mxGeometry x="320" y="6115.215" width="120" height="60" as="geometry" />
        </mxCell>
        <mxCell id="jgrW-l6k0apfGBNPhtUm-26" value="Imprime un mensaje en la consola indicando que se realizó el ajuste de línea base adaptativa (ABC) para la componente actual. &lt;code&gt;char(info{1}{1,h}.componente)&lt;/code&gt;" style="whiteSpace=wrap;html=1;rounded=1;glass=0;strokeWidth=1;shadow=0;fillColor=#dae8fc;strokeColor=#6c8ebf;" vertex="1" parent="WIyWlLk6GJQsqaUBKTNV-1">
          <mxGeometry x="40" y="6090" width="200" height="85.22" as="geometry" />
        </mxCell>
        <mxCell id="jgrW-l6k0apfGBNPhtUm-28" value="Fin" style="whiteSpace=wrap;html=1;rounded=1;glass=0;strokeWidth=1;shadow=0;fillColor=#dae8fc;strokeColor=#6c8ebf;" vertex="1" parent="WIyWlLk6GJQsqaUBKTNV-1">
          <mxGeometry x="375" y="6370.005" width="120" height="60" as="geometry" />
        </mxCell>
        <mxCell id="jgrW-l6k0apfGBNPhtUm-36" value="" style="edgeStyle=orthogonalEdgeStyle;rounded=0;orthogonalLoop=1;jettySize=auto;html=1;" edge="1" parent="WIyWlLk6GJQsqaUBKTNV-1" source="jgrW-l6k0apfGBNPhtUm-30" target="jgrW-l6k0apfGBNPhtUm-35">
          <mxGeometry relative="1" as="geometry" />
        </mxCell>
        <mxCell id="jgrW-l6k0apfGBNPhtUm-37" style="edgeStyle=orthogonalEdgeStyle;rounded=0;orthogonalLoop=1;jettySize=auto;html=1;entryX=0.5;entryY=0;entryDx=0;entryDy=0;" edge="1" parent="WIyWlLk6GJQsqaUBKTNV-1" source="jgrW-l6k0apfGBNPhtUm-30" target="jgrW-l6k0apfGBNPhtUm-28">
          <mxGeometry relative="1" as="geometry" />
        </mxCell>
        <mxCell id="jgrW-l6k0apfGBNPhtUm-30" value="Mensaje de aviso" style="whiteSpace=wrap;html=1;rounded=1;glass=0;strokeWidth=1;shadow=0;" vertex="1" parent="WIyWlLk6GJQsqaUBKTNV-1">
          <mxGeometry x="530" y="6230" width="120" height="60" as="geometry" />
        </mxCell>
        <mxCell id="jgrW-l6k0apfGBNPhtUm-35" value="Imprime un mensaje en la consola indicando que no es necesario realizar el ajuste de línea base adaptativa (ABC) para la componente actual.&amp;nbsp;&lt;code&gt;char(info{1}{1,h}.componente)&lt;/code&gt;" style="whiteSpace=wrap;html=1;rounded=1;glass=0;strokeWidth=1;shadow=0;fillColor=#dae8fc;strokeColor=#6c8ebf;" vertex="1" parent="WIyWlLk6GJQsqaUBKTNV-1">
          <mxGeometry x="730" y="6210" width="240" height="90" as="geometry" />
        </mxCell>
      </root>
    </mxGraphModel>
  </diagram>
</mxfile>
